# xmcd CD database file
#
# Track frame offsets:
#	150
#	14678
#	27883
#	47155
#	59294
#	75209
#	90984
#	107804
#	123377
#
# Disc length: 1873 seconds
#
# Revision: 0
# Processed by: cddbd v1.5.2PL0 Copyright (c) Steve Scherf et al.
# Submitted via: CDex 1.51
#
DISCID=65074f09
DTITLE=Don Redmon Band - The Best Friend
DYEAR=2006
DGENRE=Country
TTITLE0=The Best Friend
TTITLE1=Pick Me Up On My Way Down
TTITLE2=Easy Money
TTITLE3=Darling Will You Stay
TTITLE4=Same Old Love
TTITLE5=Howdy Bro
TTITLE6=Never Got A Chance To Say Goodbye
TTITLE7=Square One
TTITLE8=Belleau Wood
EXTD=YEAR: 2006
EXTT0=
EXTT1=
EXTT2=
EXTT3=
EXTT4=
EXTT5=
EXTT6=
EXTT7=
EXTT8=
PLAYORDER=
